<svg width="35" height="21" viewBox="0 0 35 21" fill="none" xmlns="http://www.w3.org/2000/svg">
<path d="M0 20.6953V0.1875H4.26563V2.0625C4.52344 1.414 4.87891 0.9101 5.33205 0.5508C5.79295 0.1836 6.44925 0 7.30075 0C8.44925 0 9.25785 0.417901 9.72655 1.2539C10.2032 2.0898 10.4415 3.1836 10.4415 4.5351V13.1836C10.4415 14.082 10.3125 14.8945 10.0547 15.6211C9.80465 16.3398 9.40625 16.9101 8.85935 17.332C8.32035 17.7461 7.61325 17.9531 6.73825 17.9531C5.59765 17.9531 4.77344 17.2656 4.26563 15.8906V20.6953H0ZM5.26175 14.6836C5.69925 14.6836 5.96095 14.4648 6.04685 14.0273C6.14065 13.5898 6.18745 13.0508 6.18745 12.4101V5.5429C6.18745 4.8945 6.14065 4.3554 6.04685 3.9258C5.96095 3.4883 5.69925 3.2695 5.26175 3.2695C4.80859 3.2695 4.52734 3.4922 4.41797 3.9375C4.31641 4.375 4.26563 4.9101 4.26563 5.5429V12.4101C4.26563 13.0429 4.31641 13.582 4.41797 14.0273C4.52734 14.4648 4.80859 14.6836 5.26175 14.6836Z" fill="white"/>
<path d="M17.1094 17.9531C13.6094 17.9531 11.8594 16.1367 11.8594 12.5039V5.4492C11.8594 3.7929 12.3243 2.4726 13.254 1.4883C14.1836 0.4961 15.4688 0 17.1094 0C18.7579 0 20.0469 0.4961 20.9766 1.4883C21.9063 2.4726 22.3711 3.7929 22.3711 5.4492V12.5039C22.3711 16.1367 20.6172 17.9531 17.1094 17.9531ZM17.1094 14.7187C17.461 14.7187 17.711 14.5937 17.8594 14.3437C18.0157 14.0859 18.0938 13.7617 18.0938 13.3711V4.7812C18.0938 3.7578 17.7657 3.2461 17.1094 3.2461C16.4532 3.2461 16.1251 3.7578 16.1251 4.7812V13.3711C16.1251 13.7617 16.1993 14.0859 16.3477 14.3437C16.504 14.5937 16.7579 14.7187 17.1094 14.7187Z" fill="white"/>
<path d="M34.3124 20.6953V0.1875H30.0468V2.0625C29.789 1.414 29.4335 0.9101 28.9804 0.5508C28.5195 0.1836 27.8632 0 27.0117 0C25.8632 0 25.0546 0.417901 24.5859 1.2539C24.1093 2.0898 23.871 3.1836 23.871 4.5351V13.1836C23.871 14.082 24 14.8945 24.2578 15.6211C24.5078 16.3398 24.9062 16.9101 25.4531 17.332C25.9921 17.7461 26.6992 17.9531 27.5742 17.9531C28.7148 17.9531 29.539 17.2656 30.0468 15.8906V20.6953H34.3124ZM29.0507 14.6836C28.6132 14.6836 28.3515 14.4648 28.2656 14.0273C28.1718 13.5898 28.125 13.0508 28.125 12.4101V5.5429C28.125 4.8945 28.1718 4.3554 28.2656 3.9258C28.3515 3.4883 28.6132 3.2695 29.0507 3.2695C29.5039 3.2695 29.7851 3.4922 29.8945 3.9375C29.996 4.375 30.0468 4.9101 30.0468 5.5429V12.4101C30.0468 13.0429 29.996 13.582 29.8945 14.0273C29.7851 14.4648 29.5039 14.6836 29.0507 14.6836Z" fill="white"/>
</svg>
